<svg width="27" height="27" viewBox="0 0 27 27" fill="none" xmlns="http://www.w3.org/2000/svg">
<path d="M4.5 0.5H22.5C23.5609 0.5 24.578 0.921729 25.3281 1.67188C26.0783 2.42202 26.5 3.43913 26.5 4.5V22.5L26.4951 22.6982C26.4461 23.6869 26.0314 24.6248 25.3281 25.3281C24.578 26.0783 23.5609 26.5 22.5 26.5H4.5C3.43913 26.5 2.42202 26.0783 1.67188 25.3281C0.921729 24.578 0.5 23.5609 0.5 22.5V4.5C0.5 3.43913 0.921729 2.42202 1.67188 1.67188C2.42202 0.921729 3.43913 0.5 4.5 0.5ZM7.5 10C6.96957 10 6.46101 10.2109 6.08594 10.5859C5.71087 10.961 5.5 11.4696 5.5 12V19.5C5.5 20.0304 5.71087 20.539 6.08594 20.9141C6.46101 21.2891 6.96957 21.5 7.5 21.5C8.03043 21.5 8.53899 21.2891 8.91406 20.9141C9.28913 20.539 9.5 20.0304 9.5 19.5V12C9.5 11.4696 9.28913 10.961 8.91406 10.5859C8.53899 10.2109 8.03043 10 7.5 10ZM13.5 5.5C12.9696 5.5 12.461 5.71087 12.0859 6.08594C11.7109 6.46101 11.5 6.96957 11.5 7.5V19.5C11.5 20.0304 11.7109 20.539 12.0859 20.9141C12.461 21.2891 12.9696 21.5 13.5 21.5C14.0304 21.5 14.539 21.2891 14.9141 20.9141C15.2891 20.539 15.5 20.0304 15.5 19.5V7.5C15.5 6.96957 15.2891 6.46101 14.9141 6.08594C14.539 5.71087 14.0304 5.5 13.5 5.5ZM19.5 14.5C18.9696 14.5 18.461 14.7109 18.0859 15.0859C17.7109 15.461 17.5 15.9696 17.5 16.5V19.5C17.5 20.0304 17.7109 20.539 18.0859 20.9141C18.461 21.2891 18.9696 21.5 19.5 21.5C20.0304 21.5 20.539 21.2891 20.9141 20.9141C21.2891 20.539 21.5 20.0304 21.5 19.5V16.5C21.5 15.9696 21.2891 15.461 20.9141 15.0859C20.539 14.7109 20.0304 14.5 19.5 14.5Z" fill="#202020" stroke="black"/>
</svg>
